<svg width="30" height="14" viewBox="0 0 30 14" fill="none" xmlns="http://www.w3.org/2000/svg">
<path d="M2.16867 3.35306C2.16867 2.61233 2.81597 2.01184 3.61445 2.01184H23.494C24.2925 2.01184 24.9398 2.61233 24.9398 3.35306V9.72387C24.9398 10.4646 24.2925 11.0651 23.494 11.0651H3.61445C2.81597 11.0651 2.16867 10.4646 2.16867 9.72387V3.35306Z" fill="white"/>
<path opacity="0.4" fill-rule="evenodd" clip-rule="evenodd" d="M3.61446 1.00592H23.494C24.8913 1.00592 26.0241 2.05677 26.0241 3.35306V9.72387C26.0241 11.0202 24.8913 12.071 23.494 12.071H3.61446C2.21711 12.071 1.08434 11.0202 1.08434 9.72387V3.35306C1.08434 2.05677 2.21711 1.00592 3.61446 1.00592ZM0 3.35306C0 1.50121 1.61825 0 3.61446 0H23.494C25.4902 0 27.1084 1.50122 27.1084 3.35306V9.72387C27.1084 11.5757 25.4902 13.0769 23.494 13.0769H3.61446C1.61825 13.0769 0 11.5757 0 9.72387V3.35306ZM30 6.53846C30 7.56905 29.2289 8.43257 28.1928 8.65963V4.4173C29.2289 4.64435 30 5.50787 30 6.53846Z" fill="white"/>
</svg>
