<svg width="270" height="132" viewBox="0 0 270 132" fill="none" xmlns="http://www.w3.org/2000/svg">
<g clip-path="url(#clip0_3_212)">
<path d="M80.3259 113.1C79.3976 119.65 75.9843 125.641 72.343 131.413C72.2226 131.61 72.0988 131.803 71.9718 132H34.1262C33.3608 131.821 32.6052 131.625 31.8528 131.413C27.5783 130.241 23.5428 128.454 19.9032 126.12C5.97976 117.086 0.622041 100.017 3.04201 84.7219C4.54675 75.2194 9.17803 65.5174 18.1965 60.3996C22.9581 57.6925 29.0746 56.8127 34.5561 57.8186C34.6995 57.8421 34.8428 57.8714 34.9893 57.8978C39.7053 58.8539 43.9067 61.2296 46.2974 65.057C50.5965 71.9346 48.0366 80.4546 45.9229 88.1094C43.8156 95.7642 42.6723 104.927 48.7889 110.572C46.7696 105.22 48.7628 98.835 53.5864 95.2158C57.2309 92.4853 62.3052 91.4617 66.9333 92.3093C67.3762 92.3944 67.8128 92.4911 68.2426 92.6085C69.2816 92.8825 70.2834 93.2602 71.2292 93.7347C78.4433 97.3627 81.3648 105.718 80.3259 113.1Z" fill="#F2F2F2"/>
<path d="M57.8855 131.413C58.9341 131.633 59.9861 131.827 61.0446 132H55.3222C54.5731 131.818 53.8272 131.625 53.088 131.413C51.4627 130.956 49.8625 130.431 48.2872 129.838C41.9688 127.451 36.1486 123.867 31.7452 119.098C29.5917 116.788 27.8331 114.201 26.5276 111.423C25.112 108.283 24.2124 104.974 23.8571 101.601C23.059 94.6791 23.8733 87.5668 25.3942 80.7684C26.9639 73.7222 29.4976 66.8784 32.9373 60.3937C33.351 59.6165 33.7787 58.8442 34.2206 58.0767C34.251 58.0135 34.297 57.9574 34.3551 57.9127C34.4132 57.868 34.4819 57.8358 34.556 57.8186C34.7063 57.7924 34.8621 57.8208 34.9892 57.8978C35.1417 57.9766 35.2548 58.1051 35.3051 58.2569C35.3554 58.4086 35.3391 58.5719 35.2595 58.7131C31.7129 64.9413 29.0245 71.5364 27.2539 78.3517C25.5213 85.0005 24.5377 91.9573 24.8731 98.7939C25.1923 105.182 27.0456 111.464 31.2502 116.687C35.0901 121.456 40.3924 125.216 46.2582 127.777C49.9709 129.376 53.871 130.596 57.8855 131.413Z" fill="white"/>
<path d="M70.4442 132H68.7571C68.5681 131.806 68.3857 131.61 68.2067 131.413C64.3638 127.209 61.7605 122.2 60.6375 116.849C59.2736 110.171 60.3346 103.276 63.6631 97.1838C64.5918 95.4755 65.686 93.8444 66.9331 92.3093C67.376 92.3944 67.8126 92.4912 68.2424 92.6085C64.9622 96.5221 62.7559 101.079 61.8034 105.906C60.9538 110.43 61.2363 115.067 62.6303 119.48C64.0243 123.893 66.4947 127.97 69.8612 131.413C70.05 131.61 70.2454 131.806 70.4442 132Z" fill="white"/>
<path d="M222.426 127.012C222.671 128.741 223.572 130.322 224.533 131.845C224.564 131.897 224.597 131.948 224.631 132H234.619C234.821 131.953 235.02 131.901 235.219 131.845C236.347 131.536 237.412 131.064 238.372 130.448C242.047 128.064 243.461 123.559 242.822 119.522C242.425 117.015 241.203 114.454 238.823 113.103C237.53 112.394 235.988 112.151 234.505 112.422C234.467 112.428 234.43 112.436 234.391 112.443C233.774 112.551 233.189 112.774 232.674 113.1C232.16 113.426 231.728 113.846 231.407 114.333C230.272 116.148 230.948 118.396 231.505 120.417C232.062 122.437 232.363 124.855 230.749 126.345C230.986 125.722 231.034 125.053 230.888 124.408C230.743 123.762 230.409 123.163 229.921 122.673C229.434 122.182 228.81 121.817 228.114 121.615C227.418 121.413 226.674 121.382 225.96 121.525C225.843 121.547 225.728 121.573 225.615 121.604C225.341 121.676 225.076 121.776 224.827 121.901C222.923 122.859 222.152 125.064 222.426 127.012Z" fill="#F2F2F2"/>
<path d="M228.348 131.845C228.071 131.903 227.794 131.954 227.514 132H229.025C229.222 131.952 229.419 131.901 229.614 131.845C230.043 131.724 230.466 131.586 230.881 131.43C232.568 130.813 234.065 129.841 235.247 128.595C235.815 127.985 236.28 127.302 236.624 126.569C236.998 125.741 237.235 124.867 237.329 123.977C237.5 122.136 237.364 120.283 236.923 118.479C236.509 116.619 235.84 114.813 234.932 113.102C234.823 112.897 234.71 112.693 234.594 112.49C234.586 112.474 234.574 112.459 234.558 112.447C234.543 112.435 234.525 112.427 234.505 112.422C234.466 112.415 234.424 112.423 234.391 112.443C234.351 112.464 234.321 112.498 234.308 112.538C234.294 112.578 234.299 112.621 234.32 112.658C235.256 114.302 235.965 116.043 236.432 117.841C236.914 119.605 237.125 121.421 237.061 123.236C237.026 124.925 236.441 126.567 235.378 127.959C234.344 129.212 232.983 130.217 231.417 130.885C230.437 131.308 229.408 131.63 228.348 131.845Z" fill="white"/>
<path d="M225.034 132H225.479C225.529 131.949 225.577 131.897 225.624 131.845C226.638 130.736 227.325 129.413 227.622 128.001C227.982 126.239 227.702 124.419 226.823 122.811C226.578 122.361 226.289 121.93 225.96 121.525C225.843 121.547 225.728 121.573 225.615 121.604C226.48 122.637 227.063 123.839 227.314 125.113C227.538 126.307 227.464 127.531 227.096 128.696C226.728 129.86 226.076 130.936 225.188 131.845C225.138 131.897 225.086 131.949 225.034 132Z" fill="white"/>
<path d="M132.398 87.3262H101.137L100.806 78.6711C100.792 78.2959 100.868 77.9223 101.029 77.5762C101.19 77.23 101.433 76.9194 101.74 76.6658C102.048 76.4122 102.413 76.2216 102.81 76.1071C103.207 75.9926 103.627 75.9569 104.04 76.0025L122.232 78.0084H122.234C124.931 78.015 127.515 78.9839 129.42 80.7029C131.325 82.422 132.396 84.7509 132.398 87.1795V87.3262Z" fill="#393E46"/>
<path d="M118.465 56.625H96.6622C96.3722 56.6249 96.0851 56.6763 95.8172 56.7762C95.5493 56.8761 95.3059 57.0225 95.1008 57.2072C94.8958 57.3918 94.7332 57.611 94.6223 57.8523C94.5113 58.0935 94.4543 58.3521 94.4543 58.6132V78.2465C94.4543 78.5076 94.5113 78.7662 94.6223 79.0074C94.7332 79.2487 94.8958 79.4679 95.1008 79.6525C95.3059 79.8372 95.5493 79.9836 95.8172 80.0835C96.0851 80.1834 96.3722 80.2348 96.6622 80.2347H118.465C118.755 80.2348 119.042 80.1834 119.31 80.0835C119.578 79.9836 119.821 79.8372 120.026 79.6525C120.231 79.4679 120.394 79.2487 120.505 79.0074C120.616 78.7662 120.673 78.5076 120.673 78.2465V58.6132C120.673 58.3521 120.616 58.0935 120.505 57.8523C120.394 57.611 120.231 57.3918 120.026 57.2072C119.821 57.0225 119.578 56.8761 119.31 56.7762C119.042 56.6763 118.755 56.6249 118.465 56.625Z" fill="#CCCCCC"/>
<path d="M113.555 71.306L103.261 73.1111C102.65 73.2176 102.017 73.1015 101.502 72.7885C100.986 72.4755 100.629 71.991 100.51 71.4414L99.7183 67.7823C99.6001 67.2324 99.729 66.6628 100.077 66.1984C100.424 65.734 100.962 65.4127 101.573 65.305L111.867 63.4999C112.477 63.3934 113.11 63.5094 113.625 63.8225C114.141 64.1355 114.498 64.62 114.618 65.1696L115.409 68.8287C115.527 69.3785 115.398 69.9482 115.051 70.4126C114.703 70.877 114.165 71.1983 113.555 71.306Z" fill="#3F3D56"/>
<path d="M111.495 66.9831L103.639 68.3607C103.495 68.3859 103.347 68.3587 103.225 68.285C103.104 68.2113 103.02 68.0973 102.992 67.9679C102.964 67.8385 102.994 67.7043 103.076 67.595C103.158 67.4857 103.284 67.4102 103.428 67.385L111.284 66.0073C111.428 65.9821 111.577 66.0094 111.698 66.0831C111.819 66.1567 111.903 66.2708 111.931 66.4002C111.959 66.5296 111.929 66.6637 111.847 66.773C111.765 66.8823 111.639 66.9579 111.495 66.9831Z" fill="white"/>
<path d="M109.968 69.0233L105.905 69.7358C105.761 69.761 105.612 69.7338 105.491 69.6601C105.369 69.5864 105.285 69.4723 105.257 69.3429C105.229 69.2136 105.26 69.0794 105.341 68.9701C105.423 68.8608 105.55 68.7853 105.694 68.7601L109.757 68.0475C109.828 68.035 109.901 68.0353 109.972 68.0483C110.043 68.0613 110.111 68.0867 110.171 68.1232C110.231 68.1597 110.283 68.2065 110.323 68.2609C110.363 68.3153 110.39 68.3763 110.404 68.4404C110.418 68.5044 110.418 68.5703 110.403 68.6343C110.389 68.6983 110.361 68.7591 110.32 68.8132C110.28 68.8673 110.228 68.9137 110.167 68.9498C110.107 68.9858 110.039 69.0108 109.968 69.0233Z" fill="white"/>
<path d="M120.673 58.6132V61.2227H94.4543V58.6132C94.4543 58.3521 94.5113 58.0935 94.6223 57.8523C94.7332 57.611 94.8958 57.3918 95.1008 57.2072C95.3059 57.0225 95.5493 56.8761 95.8172 56.7762C96.0851 56.6763 96.3722 56.6249 96.6622 56.625H118.465C118.755 56.6249 119.042 56.6763 119.31 56.7762C119.578 56.8761 119.821 57.0225 120.026 57.2072C120.231 57.3918 120.394 57.611 120.505 57.8523C120.616 58.0935 120.673 58.3521 120.673 58.6132Z" fill="#B3B3B3"/>
<path d="M173.028 62.0398C172.877 61.5998 172.62 61.1951 172.276 60.8541C171.932 60.5131 171.51 60.2441 171.038 60.0662C170.566 59.8882 170.057 59.8055 169.546 59.824C169.035 59.8425 168.534 59.9616 168.08 60.1731L138.085 50.4821L136.763 57.2298L166.663 64.634C167.108 65.2979 167.808 65.7917 168.631 66.0218C169.453 66.252 170.341 66.2025 171.125 65.8827C171.91 65.563 172.537 64.9951 172.888 64.2869C173.238 63.5786 173.288 62.7791 173.028 62.0398Z" fill="#FFB8B8"/>
<path opacity="0.2" d="M173.028 62.0398C172.877 61.5998 172.62 61.1951 172.276 60.8541C171.932 60.5131 171.51 60.2441 171.038 60.0662C170.566 59.8882 170.057 59.8055 169.546 59.824C169.035 59.8425 168.534 59.9616 168.08 60.1731L138.085 50.4821L136.763 57.2298L166.663 64.634C167.108 65.2979 167.808 65.7917 168.631 66.0218C169.453 66.252 170.341 66.2025 171.125 65.8827C171.91 65.563 172.537 64.9951 172.888 64.2869C173.238 63.5786 173.288 62.7791 173.028 62.0398Z" fill="black"/>
<path d="M143.409 51.7116L140.576 58.3752C140.495 58.5648 140.37 58.7365 140.21 58.8787C140.049 59.0208 139.855 59.1301 139.643 59.199C139.431 59.2679 139.205 59.2948 138.981 59.278C138.756 59.2611 138.538 59.2009 138.342 59.1013L131.458 55.6123C130.383 55.2354 129.518 54.4901 129.052 53.5399C128.587 52.5896 128.559 51.5119 128.974 50.543C129.39 49.5741 130.215 48.7931 131.269 48.3711C132.323 47.9492 133.519 47.9208 134.596 48.2922L142.284 49.8275C142.504 49.8715 142.711 49.9577 142.89 50.0803C143.07 50.2028 143.218 50.3588 143.325 50.5376C143.432 50.7164 143.495 50.9138 143.509 51.1164C143.523 51.319 143.489 51.522 143.409 51.7116Z" fill="#DBC0E8"/>
<path d="M175.389 68.2098L164.641 72.6092L166.052 77.393C168.777 86.6309 169.501 96.255 168.182 105.739L176.041 107.217L182.555 92.2595L180.275 75.2488L175.389 68.2098Z" fill="#2DB398"/>
<path d="M196.478 90.353C189.416 90.353 183.661 94.9758 183.382 100.765H209.574C209.294 94.9758 203.54 90.353 196.478 90.353Z" fill="black"/>
<path d="M190.981 91.3507C190.613 65.2192 174.086 67.6232 174.086 67.6232C174.086 67.6232 174.396 75.7571 174.544 76.0101C185.076 93.9533 167.695 114.989 145.57 111.119C145.153 111.046 144.753 110.972 144.368 110.897C141.565 110.37 139.09 108.901 137.446 106.789C135.803 104.677 135.115 102.081 135.521 99.5285C137.701 83.7685 126.861 84.0474 126.861 84.0474H111.011L102.779 77.3763C102.489 77.1408 102.138 76.973 101.759 76.8876C101.38 76.8021 100.983 76.8017 100.604 76.8862C100.224 76.9707 99.8738 77.1377 99.5825 77.3724C99.2913 77.6072 99.0683 77.9027 98.9332 78.233L97.8742 80.8212C97.8742 80.8212 82.2409 82.2877 83.5437 96.0722H88.3769C88.3652 96.4639 88.3827 96.8558 88.4291 97.2453L124.5 96.9813C126.614 96.9658 128.481 98.5086 128.489 100.413C128.492 100.876 128.39 101.335 128.19 101.763C127.991 102.19 127.698 102.577 127.329 102.9C126.959 103.223 126.521 103.475 126.041 103.642C125.561 103.81 125.048 103.888 124.534 103.872L118.719 103.698C116.927 110.883 121.324 115.722 126.169 118.765C130.73 121.589 136.143 123.086 141.678 123.055H157.476C177.995 123.055 181.577 107.51 181.577 107.51C192.325 103.404 190.981 91.3507 190.981 91.3507Z" fill="#2DB398"/>
<path d="M195.501 131.56C205.619 131.56 213.821 124.174 213.821 115.063C213.821 105.951 205.619 98.5652 195.501 98.5652C185.383 98.5652 177.18 105.951 177.18 115.063C177.18 124.174 185.383 131.56 195.501 131.56Z" fill="#3F3D56"/>
<path d="M195.501 119.106C197.981 119.106 199.991 117.296 199.991 115.063C199.991 112.83 197.981 111.019 195.501 111.019C193.021 111.019 191.01 112.83 191.01 115.063C191.01 117.296 193.021 119.106 195.501 119.106Z" fill="white"/>
<path d="M103.004 131.56C114.651 131.56 124.092 123.058 124.092 112.57C124.092 102.082 114.651 93.5792 103.004 93.5792C91.3568 93.5792 81.915 102.082 81.915 112.57C81.915 123.058 91.3568 131.56 103.004 131.56Z" fill="#3F3D56"/>
<path d="M103.004 117.224C105.858 117.224 108.173 115.14 108.173 112.57C108.173 109.999 105.858 107.915 103.004 107.915C100.149 107.915 97.835 109.999 97.835 112.57C97.835 115.14 100.149 117.224 103.004 117.224Z" fill="white"/>
<path d="M164.672 73.9091L160.805 64.4507C160.603 63.9578 160.512 63.4339 160.535 62.909C160.558 62.3841 160.696 61.8685 160.941 61.3916C161.185 60.9147 161.532 60.4859 161.96 60.1296C162.389 59.7733 162.891 59.4965 163.439 59.315L174.525 55.6398C175.488 55.3204 176.512 55.1749 177.538 55.2118C178.563 55.2486 179.571 55.467 180.503 55.8545C181.434 56.2419 182.272 56.7909 182.969 57.47C183.665 58.1491 184.206 58.945 184.561 59.8124C184.88 60.5909 185.044 61.4144 185.043 62.2445C185.039 63.2984 184.774 64.3383 184.268 65.2885C183.761 66.2387 183.026 67.0754 182.116 67.7377C181.458 68.2128 180.719 68.5882 179.927 68.849L164.672 73.9091Z" fill="#3F3D56"/>
<path d="M184.88 62.2444C184.879 63.2768 184.621 64.296 184.125 65.2269C183.629 66.1577 182.908 66.9766 182.014 67.6233C180.642 67.2975 179.366 66.7068 178.274 65.8921C177.182 65.0773 176.3 64.0582 175.689 62.9055C175.079 61.7528 174.754 60.4941 174.738 59.2171C174.723 57.94 175.016 56.6752 175.598 55.5105C176.715 55.2917 177.872 55.301 178.985 55.5377C180.097 55.7745 181.137 56.2326 182.027 56.8784C182.917 57.5243 183.636 58.3415 184.129 59.27C184.623 60.1986 184.88 61.2149 184.88 62.2444Z" fill="#5EADB8"/>
<path d="M86.3119 97.9786C88.8302 97.9786 90.8716 95.7464 90.8716 92.9927C90.8716 90.2391 88.8302 88.0068 86.3119 88.0068C83.7936 88.0068 81.7522 90.2391 81.7522 92.9927C81.7522 95.7464 83.7936 97.9786 86.3119 97.9786Z" fill="#FF0000"/>
<path d="M146.585 110.642H150.578L152.478 101.316L146.584 101.316L146.585 110.642Z" fill="#FFB8B8"/>
<path d="M145.567 109.468L153.43 109.467H153.43C154.089 109.467 154.74 109.584 155.348 109.811C155.956 110.038 156.509 110.37 156.974 110.789C157.439 111.208 157.808 111.706 158.06 112.253C158.312 112.801 158.442 113.387 158.442 113.98V114.127L145.567 114.127L145.567 109.468Z" fill="#2F2E41"/>
<path d="M151.22 106.814C151.174 106.814 151.127 106.812 151.08 106.808L145.554 106.446C145.331 106.427 145.115 106.362 144.924 106.257C144.732 106.151 144.57 106.007 144.45 105.837C144.331 105.666 144.256 105.472 144.232 105.271C144.208 105.07 144.236 104.867 144.313 104.677L151.709 89.7154C151.762 89.582 151.783 89.4402 151.772 89.299C151.761 89.1577 151.718 89.02 151.645 88.8946C151.572 88.7676 151.47 88.656 151.346 88.5671C151.222 88.4781 151.078 88.4138 150.925 88.3784C147.447 87.5599 138.525 85.3803 130.801 82.83C127.492 81.7374 125.408 80.1584 124.607 78.1368C123.551 75.4718 125.113 73.0413 125.18 72.9393L125.233 72.8594L132.5 73.4543L140.379 74.0577L157.646 82.3952C159.092 83.0998 160.191 84.2692 160.723 85.6707C161.256 87.0721 161.182 88.6026 160.518 89.9574L152.557 106.032C152.442 106.265 152.255 106.462 152.017 106.601C151.78 106.74 151.503 106.814 151.22 106.814Z" fill="#2F2E41"/>
<path d="M133.764 43.853C138.182 43.853 141.763 40.6279 141.763 36.6495C141.763 32.6711 138.182 29.446 133.764 29.446C129.346 29.446 125.765 32.6711 125.765 36.6495C125.765 40.6279 129.346 43.853 133.764 43.853Z" fill="#FFB8B8"/>
<path d="M144.305 111.521H148.298L150.198 102.196L144.305 102.196L144.305 111.521Z" fill="#FFB8B8"/>
<path d="M143.287 110.348L151.15 110.347H151.151C151.809 110.347 152.46 110.464 153.068 110.691C153.676 110.918 154.229 111.25 154.694 111.669C155.16 112.088 155.529 112.585 155.781 113.133C156.032 113.68 156.162 114.267 156.162 114.86V115.007L143.287 115.007L143.287 110.348Z" fill="#2F2E41"/>
<path d="M148.94 107.694C148.893 107.694 148.847 107.692 148.8 107.688L143.274 107.326C143.051 107.307 142.835 107.242 142.643 107.137C142.452 107.031 142.29 106.887 142.17 106.716C142.051 106.546 141.976 106.352 141.952 106.151C141.928 105.95 141.956 105.747 142.033 105.557L149.429 90.5953C149.482 90.4619 149.503 90.3201 149.492 90.1789C149.481 90.0376 149.438 89.8999 149.365 89.7744C149.292 89.6475 149.19 89.5359 149.066 89.447C148.942 89.358 148.798 89.2937 148.645 89.2583C145.167 88.4398 136.245 86.2601 128.521 83.7099C125.212 82.6172 123.128 81.0382 122.327 79.0167C121.271 76.3516 122.833 73.9211 122.9 73.8192L122.953 73.7393L130.22 74.3341L138.099 74.9376L155.365 83.2751C156.812 83.9797 157.911 85.1491 158.443 86.5505C158.976 87.952 158.902 89.4825 158.238 90.8373L150.277 106.912C150.162 107.145 149.975 107.342 149.737 107.481C149.5 107.62 149.223 107.694 148.94 107.694Z" fill="#2F2E41"/>
<path d="M136.231 47.9376L127.763 45.298C127.763 45.298 122.447 48.9758 125.001 58.0996C126.334 62.8078 125.946 67.7776 123.893 72.2713C123.646 72.8273 123.362 73.3691 123.041 73.8936C123.041 73.8936 132.486 84.1586 141.279 76.5331L137.86 61.7221C137.86 61.7221 143.234 51.897 136.231 47.9376Z" fill="#393E46"/>
<path d="M134.757 44.0979C133.619 42.5633 132.72 40.4355 133.974 38.9754C135.211 37.5341 137.652 37.7464 139.547 37.1087C142.186 36.2204 143.717 33.4281 143.239 30.9274C142.762 28.4268 140.533 26.3538 137.877 25.5056C135.221 24.6574 132.227 24.9332 129.626 25.91C126.425 27.1124 123.679 29.4383 122.527 32.3847C121.376 35.3311 121.991 38.8687 124.38 41.1334C126.941 43.5613 130.961 44.2084 134.679 44.1691" fill="#2F2E41"/>
<path d="M127.316 31.0077C125.881 32.0594 123.693 31.5923 122.153 30.6693C120.613 29.7463 119.363 28.432 117.697 27.7083C114.759 26.4326 111.208 27.2807 108.349 28.6938C105.49 30.107 102.956 32.0593 99.9358 33.1683C96.916 34.2772 93.0624 34.3321 90.7757 32.2381C90.213 33.7062 90.167 35.295 90.644 36.7875C91.121 38.2801 92.0978 39.6038 93.441 40.578C94.7843 41.5522 96.4286 42.1295 98.1497 42.2311C99.8707 42.3327 101.585 41.9536 103.058 41.1457C106.367 39.3307 108.194 35.5252 111.905 34.5234C113.959 33.9691 116.164 34.4155 118.24 34.8991C120.316 35.3827 122.48 35.9052 124.574 35.4936C126.669 35.0819 128.628 33.3868 128.362 31.4712L127.316 31.0077Z" fill="#2F2E41"/>
<path d="M172.63 61.7464C172.42 61.3266 172.109 60.9535 171.721 60.6533C171.334 60.3531 170.877 60.1332 170.385 60.009C169.892 59.8848 169.375 59.8593 168.871 59.9344C168.366 60.0096 167.886 60.1834 167.464 60.4438L136.37 54.1594L135.983 61.0024L166.669 65.0279C167.202 65.6373 167.964 66.0496 168.812 66.1866C169.659 66.3236 170.533 66.1759 171.268 65.7714C172.003 65.3669 172.547 64.7337 172.798 63.9919C173.049 63.2501 172.99 62.4511 172.63 61.7464Z" fill="#FFB8B8"/>
<path d="M141.822 54.7881L139.924 61.7154C139.87 61.9125 139.769 62.0969 139.629 62.2558C139.489 62.4148 139.312 62.5446 139.111 62.6366C138.91 62.7285 138.69 62.7804 138.464 62.7886C138.239 62.7969 138.015 62.7613 137.806 62.6843L130.497 59.9868C129.378 59.7328 128.416 59.0895 127.824 58.198C127.231 57.3065 127.055 56.2396 127.335 55.2314C127.614 54.2233 128.327 53.3563 129.315 52.8205C130.304 52.2848 131.488 52.1242 132.609 52.3739L140.447 53.0433C140.672 53.0626 140.889 53.1251 141.084 53.2268C141.279 53.3284 141.448 53.4667 141.578 53.6323C141.709 53.7978 141.798 53.9868 141.84 54.1863C141.882 54.3857 141.876 54.591 141.822 54.7881V54.7881Z" fill="#DBC0E8"/>
<path d="M169.038 67.1833C170.297 67.1833 171.318 66.2641 171.318 65.1303C171.318 63.9964 170.297 63.0773 169.038 63.0773C167.779 63.0773 166.758 63.9964 166.758 65.1303C166.758 66.2641 167.779 67.1833 169.038 67.1833Z" fill="#9139BA"/>
<path d="M270 131.707C270 131.784 269.965 131.859 269.904 131.914C269.843 131.969 269.761 132 269.674 132H0.325694C0.239314 132 0.156473 131.969 0.0953932 131.914C0.0343138 131.859 0 131.785 0 131.707C0 131.629 0.0343138 131.554 0.0953932 131.499C0.156473 131.444 0.239314 131.413 0.325694 131.413H269.674C269.761 131.414 269.843 131.445 269.904 131.5C269.965 131.555 270 131.629 270 131.707Z" fill="#3F3D56"/>
</g>
<path d="M152.49 2.07217C147.994 4.3051 144.572 8.22515 142.978 12.97C141.385 17.7148 141.749 22.8957 143.992 27.373C148.661 36.6964 165.536 52.5974 179 55C173.209 37.4902 181.261 19.6923 177.9 10.5344C174.308 0.74898 161.854 -2.57765 152.49 2.07217Z" fill="#393E46"/>
<path d="M158.5 24C162.09 24 165 21.3137 165 18C165 14.6863 162.09 12 158.5 12C154.91 12 152 14.6863 152 18C152 21.3137 154.91 24 158.5 24Z" fill="white"/>
<path opacity="0.2" d="M177.904 10.5336C181.251 19.6916 173.233 37.4898 179 55C177.735 54.767 176.488 54.4407 175.271 54.0239C170.573 37.0969 177.947 20.183 174.713 11.3347C171.818 3.41533 163.145 -0.272922 155 1.0726C163.939 -1.97619 174.627 1.56593 177.904 10.5336Z" fill="#231F20"/>
<defs>
<clipPath id="clip0_3_212">
<rect width="270" height="107" fill="white" transform="translate(0 25)"/>
</clipPath>
</defs>
</svg>
