<svg width="410" height="124" viewBox="0 0 410 124" fill="none" xmlns="http://www.w3.org/2000/svg">
<g filter="url(#filter0_d_3_449)">
<path d="M10 80C10 63.4315 23.4315 50 40 50H370C386.569 50 400 63.4315 400 80V116H10V80Z" fill="#F1F1F1"/>
</g>
<g filter="url(#filter1_dd_3_449)">
<circle cx="332.5" cy="66.5" r="36.5" fill="#F1F1F1"/>
<circle cx="213.5" cy="69.5" r="36.5" fill="#F1F1F1"/>
</g>
<g filter="url(#filter2_dd_3_449)">
<circle cx="86.5" cy="46.5" r="36.5" fill="#F1F1F1"/>
<mask id="mask0_3_449" style="mask-type:alpha" maskUnits="userSpaceOnUse" x="52" y="13" width="69" height="69">
<rect x="52.5" y="13.5" width="68" height="68" fill="#D9D9D9" stroke="black"/>
</mask>
<g mask="url(#mask0_3_449)">
<mask id="path-6-inside-1_3_449" fill="white">
<path d="M86 63L83.68 60.733C80.9867 58.0881 78.76 55.8065 77 53.8883C75.24 51.97 73.84 50.248 72.8 48.7221C71.76 47.1962 71.0333 45.7938 70.62 44.515C70.2067 43.2361 70 41.9282 70 40.5913C70 37.8592 70.84 35.5777 72.52 33.7466C74.2 31.9155 76.2933 31 78.8 31C80.1867 31 81.5067 31.3197 82.76 31.9591C84.0133 32.5985 85.0933 33.4995 86 34.6621C86.9067 33.4995 87.9867 32.5985 89.24 31.9591C90.4933 31.3197 91.8133 31 93.2 31C95.7067 31 97.8 31.9155 99.48 33.7466C101.16 35.5777 102 37.8592 102 40.5913C102 41.9282 101.793 43.2361 101.38 44.515C100.967 45.7938 100.24 47.1962 99.2 48.7221C98.16 50.248 96.76 51.97 95 53.8883C93.24 55.8065 91.0133 58.0881 88.32 60.733L86 63Z"/>
</mask>
<path d="M86 63L16.1105 134.522L86 202.816L155.889 134.522L86 63ZM83.68 60.733L13.6142 132.083L13.7023 132.169L13.7906 132.255L83.68 60.733ZM86 34.6621L7.14499 96.1592L86 197.272L164.855 96.1592L86 34.6621ZM88.32 60.733L158.209 132.255L158.298 132.169L158.386 132.083L88.32 60.733ZM155.889 -8.52248L153.569 -10.7895L13.7906 132.255L16.1105 134.522L155.889 -8.52248ZM153.746 -10.6167C151.794 -12.5334 150.879 -13.5054 150.685 -13.7175L3.31518 121.494C6.64054 125.118 10.1792 128.71 13.6142 132.083L153.746 -10.6167ZM150.685 -13.7175C150.929 -13.4512 151.474 -12.8458 152.223 -11.9234C152.957 -11.0214 154.091 -9.56557 155.432 -7.59769L-9.83222 105.042C-5.23917 111.781 -0.490791 117.346 3.31518 121.494L150.685 -13.7175ZM155.432 -7.59769C157.91 -3.96192 162.389 3.28984 165.773 13.7605L-24.5333 75.2695C-20.3225 88.2978 -14.3903 98.3543 -9.83222 105.042L155.432 -7.59769ZM165.773 13.7605C168.554 22.3642 170 31.431 170 40.5913H-30C-30 52.4255 -28.1408 64.1081 -24.5333 75.2695L165.773 13.7605ZM170 40.5913C170 60.1946 163.19 82.8396 146.205 101.352L-1.16482 -33.8592C-21.5104 -11.6843 -30 15.5239 -30 40.5913H170ZM146.205 101.352C138.467 109.786 128.211 117.713 115.421 123.307C102.651 128.892 89.989 131 78.8 131V-69C48.5571 -69 19.6424 -56.5374 -1.16482 -33.8592L146.205 101.352ZM78.8 131C64.149 131 49.9199 127.467 37.3151 121.036L128.205 -57.1181C113.093 -64.8276 96.2244 -69 78.8 -69V131ZM37.3151 121.036C24.9269 114.716 14.7854 105.956 7.14499 96.1592L164.855 -26.8349C155.401 -38.9571 143.1 -49.5192 128.205 -57.1181L37.3151 121.036ZM164.855 96.1592C157.215 105.956 147.073 114.716 134.685 121.036L43.7951 -57.1181C28.9003 -49.5192 16.5988 -38.9571 7.14499 -26.8349L164.855 96.1592ZM134.685 121.036C122.08 127.467 107.851 131 93.2 131V-69C75.7756 -69 58.9065 -64.8276 43.7951 -57.1181L134.685 121.036ZM93.2 131C82.011 131 69.3492 128.892 56.5792 123.307C43.7888 117.713 33.5328 109.786 25.7952 101.352L173.165 -33.8592C152.358 -56.5374 123.443 -69 93.2 -69V131ZM25.7952 101.352C8.80961 82.8395 2 60.1945 2 40.5913H202C202 15.5239 193.51 -11.6842 173.165 -33.8592L25.7952 101.352ZM2 40.5913C2 31.4311 3.4458 22.3643 6.22666 13.7605L196.533 75.2695C200.141 64.108 202 52.4254 202 40.5913H2ZM6.22666 13.7605C9.61089 3.28979 14.0898 -3.96198 16.5678 -7.59769L181.832 105.042C186.39 98.3544 192.322 88.2979 196.533 75.2695L6.22666 13.7605ZM16.5678 -7.59769C17.909 -9.56557 19.0433 -11.0214 19.7766 -11.9234C20.5265 -12.8458 21.0708 -13.4512 21.3152 -13.7175L168.685 121.494C172.491 117.346 177.239 111.781 181.832 105.042L16.5678 -7.59769ZM21.3152 -13.7175C21.1205 -13.5054 20.2059 -12.5334 18.2542 -10.6167L158.386 132.083C161.821 128.71 165.359 125.118 168.685 121.494L21.3152 -13.7175ZM18.4305 -10.7895L16.1105 -8.52248L155.889 134.522L158.209 132.255L18.4305 -10.7895Z" fill="#333333" mask="url(#path-6-inside-1_3_449)"/>
</g>
<g clip-path="url(#clip0_3_449)">
<path d="M203.5 79.25H208.75V68.75H219.25V79.25H224.5V63.5L214 55.625L203.5 63.5V79.25ZM200 82.75V61.75L214 51.25L228 61.75V82.75H215.75V72.25H212.25V82.75H200Z" fill="black"/>
</g>
</g>
<path d="M325.5 87C324.538 87 323.714 86.6573 323.028 85.9719C322.343 85.2865 322 84.4625 322 83.5C322 82.5375 322.343 81.7135 323.028 81.0281C323.714 80.3427 324.538 80 325.5 80C326.462 80 327.286 80.3427 327.972 81.0281C328.657 81.7135 329 82.5375 329 83.5C329 84.4625 328.657 85.2865 327.972 85.9719C327.286 86.6573 326.462 87 325.5 87ZM343 87C342.038 87 341.214 86.6573 340.528 85.9719C339.843 85.2865 339.5 84.4625 339.5 83.5C339.5 82.5375 339.843 81.7135 340.528 81.0281C341.214 80.3427 342.038 80 343 80C343.962 80 344.786 80.3427 345.472 81.0281C346.157 81.7135 346.5 82.5375 346.5 83.5C346.5 84.4625 346.157 85.2865 345.472 85.9719C344.786 86.6573 343.962 87 343 87ZM324.012 59L328.212 67.75H340.462L345.275 59H324.012ZM322.35 55.5H348.162C348.833 55.5 349.344 55.799 349.694 56.3969C350.044 56.9948 350.058 57.6 349.737 58.2125L343.525 69.4125C343.204 69.9958 342.774 70.4479 342.234 70.7687C341.695 71.0896 341.104 71.25 340.462 71.25H327.425L325.5 74.75H346.5V78.25H325.5C324.188 78.25 323.196 77.674 322.525 76.5219C321.854 75.3698 321.825 74.225 322.438 73.0875L324.8 68.8L318.5 55.5H315V52H320.688L322.35 55.5Z" fill="black"/>
<defs>
<filter id="filter0_d_3_449" x="0" y="38" width="410" height="86" filterUnits="userSpaceOnUse" color-interpolation-filters="sRGB">
<feFlood flood-opacity="0" result="BackgroundImageFix"/>
<feColorMatrix in="SourceAlpha" type="matrix" values="0 0 0 0 0 0 0 0 0 0 0 0 0 0 0 0 0 0 127 0" result="hardAlpha"/>
<feOffset dy="-2"/>
<feGaussianBlur stdDeviation="5"/>
<feComposite in2="hardAlpha" operator="out"/>
<feColorMatrix type="matrix" values="0 0 0 0 0 0 0 0 0 0 0 0 0 0 0 0 0 0 0.1 0"/>
<feBlend mode="normal" in2="BackgroundImageFix" result="effect1_dropShadow_3_449"/>
<feBlend mode="normal" in="SourceGraphic" in2="effect1_dropShadow_3_449" result="shape"/>
</filter>
<filter id="filter1_dd_3_449" x="171" y="22" width="204" height="92" filterUnits="userSpaceOnUse" color-interpolation-filters="sRGB">
<feFlood flood-opacity="0" result="BackgroundImageFix"/>
<feColorMatrix in="SourceAlpha" type="matrix" values="0 0 0 0 0 0 0 0 0 0 0 0 0 0 0 0 0 0 127 0" result="hardAlpha"/>
<feOffset dy="-2"/>
<feGaussianBlur stdDeviation="3"/>
<feComposite in2="hardAlpha" operator="out"/>
<feColorMatrix type="matrix" values="0 0 0 0 0 0 0 0 0 0 0 0 0 0 0 0 0 0 0.1 0"/>
<feBlend mode="normal" in2="BackgroundImageFix" result="effect1_dropShadow_3_449"/>
<feColorMatrix in="SourceAlpha" type="matrix" values="0 0 0 0 0 0 0 0 0 0 0 0 0 0 0 0 0 0 127 0" result="hardAlpha"/>
<feOffset dy="2"/>
<feGaussianBlur stdDeviation="3"/>
<feComposite in2="hardAlpha" operator="out"/>
<feColorMatrix type="matrix" values="0 0 0 0 0 0 0 0 0 0 0 0 0 0 0 0 0 0 0.1 0"/>
<feBlend mode="normal" in2="effect1_dropShadow_3_449" result="effect2_dropShadow_3_449"/>
<feBlend mode="normal" in="SourceGraphic" in2="effect2_dropShadow_3_449" result="shape"/>
</filter>
<filter id="filter2_dd_3_449" x="44" y="0" width="197" height="96" filterUnits="userSpaceOnUse" color-interpolation-filters="sRGB">
<feFlood flood-opacity="0" result="BackgroundImageFix"/>
<feColorMatrix in="SourceAlpha" type="matrix" values="0 0 0 0 0 0 0 0 0 0 0 0 0 0 0 0 0 0 127 0" result="hardAlpha"/>
<feOffset dy="-4"/>
<feGaussianBlur stdDeviation="3"/>
<feComposite in2="hardAlpha" operator="out"/>
<feColorMatrix type="matrix" values="0 0 0 0 0 0 0 0 0 0 0 0 0 0 0 0 0 0 0.1 0"/>
<feBlend mode="normal" in2="BackgroundImageFix" result="effect1_dropShadow_3_449"/>
<feColorMatrix in="SourceAlpha" type="matrix" values="0 0 0 0 0 0 0 0 0 0 0 0 0 0 0 0 0 0 127 0" result="hardAlpha"/>
<feOffset dy="2"/>
<feGaussianBlur stdDeviation="3"/>
<feComposite in2="hardAlpha" operator="out"/>
<feColorMatrix type="matrix" values="0 0 0 0 0 0 0 0 0 0 0 0 0 0 0 0 0 0 0.1 0"/>
<feBlend mode="normal" in2="effect1_dropShadow_3_449" result="effect2_dropShadow_3_449"/>
<feBlend mode="normal" in="SourceGraphic" in2="effect2_dropShadow_3_449" result="shape"/>
</filter>
<clipPath id="clip0_3_449">
<rect width="42" height="42" fill="white" transform="translate(193 46)"/>
</clipPath>
</defs>
</svg>
