<svg width="410" height="102" viewBox="0 0 410 102" fill="none" xmlns="http://www.w3.org/2000/svg">
<g filter="url(#filter0_d_3_405)">
<path d="M10 58C10 41.4315 23.4315 28 40 28H370C386.569 28 400 41.4315 400 58V94H10V58Z" fill="#F1F1F1"/>
</g>
<g filter="url(#filter1_dd_3_405)">
<circle cx="332.5" cy="44.5" r="36.5" fill="#F1F1F1"/>
<path d="M324.5 64C323.538 64 322.714 63.6573 322.028 62.9719C321.343 62.2865 321 61.4625 321 60.5C321 59.5375 321.343 58.7135 322.028 58.0281C322.714 57.3427 323.538 57 324.5 57C325.462 57 326.286 57.3427 326.972 58.0281C327.657 58.7135 328 59.5375 328 60.5C328 61.4625 327.657 62.2865 326.972 62.9719C326.286 63.6573 325.462 64 324.5 64ZM342 64C341.038 64 340.214 63.6573 339.528 62.9719C338.843 62.2865 338.5 61.4625 338.5 60.5C338.5 59.5375 338.843 58.7135 339.528 58.0281C340.214 57.3427 341.038 57 342 57C342.962 57 343.786 57.3427 344.472 58.0281C345.157 58.7135 345.5 59.5375 345.5 60.5C345.5 61.4625 345.157 62.2865 344.472 62.9719C343.786 63.6573 342.962 64 342 64ZM323.012 36L327.212 44.75H339.462L344.275 36H323.012ZM321.35 32.5H347.162C347.833 32.5 348.344 32.799 348.694 33.3969C349.044 33.9948 349.058 34.6 348.737 35.2125L342.525 46.4125C342.204 46.9958 341.774 47.4479 341.234 47.7687C340.695 48.0896 340.104 48.25 339.462 48.25H326.425L324.5 51.75H345.5V55.25H324.5C323.188 55.25 322.196 54.674 321.525 53.5219C320.854 52.3698 320.825 51.225 321.438 50.0875L323.8 45.8L317.5 32.5H314V29H319.688L321.35 32.5Z" fill="black"/>
<circle cx="213.5" cy="47.5" r="36.5" fill="#F1F1F1"/>
</g>
<g filter="url(#filter2_dd_3_405)">
<circle cx="86.5" cy="47.5" r="36.5" fill="#F1F1F1"/>
<mask id="mask0_3_405" style="mask-type:alpha" maskUnits="userSpaceOnUse" x="52" y="13" width="69" height="69">
<rect x="52" y="13" width="69" height="69" fill="#D9D9D9"/>
</mask>
<g mask="url(#mask0_3_405)">
<path d="M93.8947 52.8742C92.1585 54.7665 89.952 57.028 87.2705 59.6613C87.27 59.6618 87.2695 59.6623 87.269 59.6627L86 60.9028L84.731 59.6627C84.7305 59.6623 84.73 59.6618 84.7295 59.6613C82.048 57.028 79.8415 54.7665 78.1053 52.8742C76.376 50.9894 75.0262 49.325 74.0395 47.8773C73.0523 46.4288 72.4037 45.1563 72.0473 44.0537C71.6819 42.9231 71.5 41.7708 71.5 40.5913C71.5 38.1942 72.2253 36.2866 73.6253 34.7607C75.0184 33.2423 76.7094 32.5 78.8 32.5C79.9461 32.5 81.0329 32.7619 82.0783 33.2953C83.127 33.8303 84.0387 34.5864 84.8172 35.5846L86 37.1013L87.1828 35.5846C87.9613 34.5864 88.873 33.8303 89.9217 33.2953L89.2424 31.9638L89.9217 33.2953C90.9671 32.7619 92.0539 32.5 93.2 32.5C95.2906 32.5 96.9816 33.2423 98.3747 34.7607C99.7747 36.2866 100.5 38.1942 100.5 40.5913C100.5 41.7708 100.318 42.9231 99.9527 44.0537C99.5963 45.1563 98.9477 46.4288 97.9605 47.8773C96.9738 49.325 95.624 50.9894 93.8947 52.8742Z" stroke="#333333" stroke-width="3"/>
</g>
<g clip-path="url(#clip0_3_405)">
<path d="M203.5 60.25H208.75V49.75H219.25V60.25H224.5V44.5L214 36.625L203.5 44.5V60.25ZM200 63.75V42.75L214 32.25L228 42.75V63.75H215.75V53.25H212.25V63.75H200Z" fill="black"/>
</g>
</g>
<defs>
<filter id="filter0_d_3_405" x="0" y="16" width="410" height="86" filterUnits="userSpaceOnUse" color-interpolation-filters="sRGB">
<feFlood flood-opacity="0" result="BackgroundImageFix"/>
<feColorMatrix in="SourceAlpha" type="matrix" values="0 0 0 0 0 0 0 0 0 0 0 0 0 0 0 0 0 0 127 0" result="hardAlpha"/>
<feOffset dy="-2"/>
<feGaussianBlur stdDeviation="5"/>
<feComposite in2="hardAlpha" operator="out"/>
<feColorMatrix type="matrix" values="0 0 0 0 0 0 0 0 0 0 0 0 0 0 0 0 0 0 0.1 0"/>
<feBlend mode="normal" in2="BackgroundImageFix" result="effect1_dropShadow_3_405"/>
<feBlend mode="normal" in="SourceGraphic" in2="effect1_dropShadow_3_405" result="shape"/>
</filter>
<filter id="filter1_dd_3_405" x="171" y="0" width="204" height="92" filterUnits="userSpaceOnUse" color-interpolation-filters="sRGB">
<feFlood flood-opacity="0" result="BackgroundImageFix"/>
<feColorMatrix in="SourceAlpha" type="matrix" values="0 0 0 0 0 0 0 0 0 0 0 0 0 0 0 0 0 0 127 0" result="hardAlpha"/>
<feOffset dy="-2"/>
<feGaussianBlur stdDeviation="3"/>
<feComposite in2="hardAlpha" operator="out"/>
<feColorMatrix type="matrix" values="0 0 0 0 0 0 0 0 0 0 0 0 0 0 0 0 0 0 0.1 0"/>
<feBlend mode="normal" in2="BackgroundImageFix" result="effect1_dropShadow_3_405"/>
<feColorMatrix in="SourceAlpha" type="matrix" values="0 0 0 0 0 0 0 0 0 0 0 0 0 0 0 0 0 0 127 0" result="hardAlpha"/>
<feOffset dy="2"/>
<feGaussianBlur stdDeviation="3"/>
<feComposite in2="hardAlpha" operator="out"/>
<feColorMatrix type="matrix" values="0 0 0 0 0 0 0 0 0 0 0 0 0 0 0 0 0 0 0.1 0"/>
<feBlend mode="normal" in2="effect1_dropShadow_3_405" result="effect2_dropShadow_3_405"/>
<feBlend mode="normal" in="SourceGraphic" in2="effect2_dropShadow_3_405" result="shape"/>
</filter>
<filter id="filter2_dd_3_405" x="44" y="1" width="197" height="91" filterUnits="userSpaceOnUse" color-interpolation-filters="sRGB">
<feFlood flood-opacity="0" result="BackgroundImageFix"/>
<feColorMatrix in="SourceAlpha" type="matrix" values="0 0 0 0 0 0 0 0 0 0 0 0 0 0 0 0 0 0 127 0" result="hardAlpha"/>
<feOffset dy="-4"/>
<feGaussianBlur stdDeviation="3"/>
<feComposite in2="hardAlpha" operator="out"/>
<feColorMatrix type="matrix" values="0 0 0 0 0 0 0 0 0 0 0 0 0 0 0 0 0 0 0.1 0"/>
<feBlend mode="normal" in2="BackgroundImageFix" result="effect1_dropShadow_3_405"/>
<feColorMatrix in="SourceAlpha" type="matrix" values="0 0 0 0 0 0 0 0 0 0 0 0 0 0 0 0 0 0 127 0" result="hardAlpha"/>
<feOffset dy="2"/>
<feGaussianBlur stdDeviation="3"/>
<feComposite in2="hardAlpha" operator="out"/>
<feColorMatrix type="matrix" values="0 0 0 0 0 0 0 0 0 0 0 0 0 0 0 0 0 0 0.1 0"/>
<feBlend mode="normal" in2="effect1_dropShadow_3_405" result="effect2_dropShadow_3_405"/>
<feBlend mode="normal" in="SourceGraphic" in2="effect2_dropShadow_3_405" result="shape"/>
</filter>
<clipPath id="clip0_3_405">
<rect width="42" height="42" fill="white" transform="translate(193 27)"/>
</clipPath>
</defs>
</svg>
