<svg width="23" height="26" viewBox="0 0 23 26" fill="none" xmlns="http://www.w3.org/2000/svg">
<path d="M4.48126 1.9201L1.11444 6.4183V22.162C1.11444 22.7585 1.35092 23.3306 1.77185 23.7524C2.19279 24.1741 2.7637 24.4111 3.35899 24.4111H19.0708C19.6661 24.4111 20.237 24.1741 20.658 23.7524C21.0789 23.3306 21.3154 22.7585 21.3154 22.162V6.4183L17.9486 1.9201H4.48126Z" stroke="white" stroke-width="2" stroke-linecap="round" stroke-linejoin="round"/>
<path d="M1.11444 6.41846H21.3154" stroke="white" stroke-width="2" stroke-linecap="round" stroke-linejoin="round"/>
<path d="M15.7038 10.9165C15.7038 12.1095 15.2309 13.2536 14.389 14.0972C13.5471 14.9408 12.4053 15.4147 11.2147 15.4147C10.0242 15.4147 8.88234 14.9408 8.04047 14.0972C7.1986 13.2536 6.72565 12.1095 6.72565 10.9165" stroke="white" stroke-width="2" stroke-linecap="round" stroke-linejoin="round"/>
</svg>
