<svg width="23" height="26" viewBox="0 0 23 26" fill="none" xmlns="http://www.w3.org/2000/svg">
<path d="M4.48132 1.9201L1.1145 6.4183V22.162C1.1145 22.7585 1.35098 23.3306 1.77191 23.7524C2.19285 24.1741 2.76376 24.4111 3.35905 24.4111H19.0709C19.6662 24.4111 20.2371 24.1741 20.658 23.7524C21.079 23.3306 21.3154 22.7585 21.3154 22.162V6.4183L17.9486 1.9201H4.48132Z" stroke="white" stroke-width="2" stroke-linecap="round" stroke-linejoin="round"/>
<path d="M1.1145 6.41846H21.3154" stroke="white" stroke-width="2" stroke-linecap="round" stroke-linejoin="round"/>
<path d="M15.7039 10.9165C15.7039 12.1095 15.2309 13.2536 14.3891 14.0972C13.5472 14.9408 12.4054 15.4147 11.2148 15.4147C10.0242 15.4147 8.8824 14.9408 8.04053 14.0972C7.19866 13.2536 6.72571 12.1095 6.72571 10.9165" stroke="white" stroke-width="2" stroke-linecap="round" stroke-linejoin="round"/>
</svg>
