<svg width="343" height="36" viewBox="0 0 343 36" fill="none" xmlns="http://www.w3.org/2000/svg">
<path d="M0.292892 19.2929C-0.0976315 19.6834 -0.0976315 20.3166 0.292892 20.7071L6.65685 27.0711C7.04738 27.4616 7.68054 27.4616 8.07107 27.0711C8.46159 26.6805 8.46159 26.0474 8.07107 25.6569L2.41421 20L8.07107 14.3431C8.46159 13.9526 8.46159 13.3195 8.07107 12.9289C7.68054 12.5384 7.04738 12.5384 6.65685 12.9289L0.292892 19.2929ZM24 19L1 19V21L24 21V19Z" fill="black"/>
<g style="mix-blend-mode:darken">
<path d="M324.75 17.25H327.25V13.5H331V11H327.25V7.25H324.75V11H321V13.5H324.75V17.25ZM319.75 28.5C318.375 28.5 317.263 29.625 317.263 31C317.263 32.375 318.375 33.5 319.75 33.5C321.125 33.5 322.25 32.375 322.25 31C322.25 29.625 321.125 28.5 319.75 28.5ZM332.25 28.5C330.875 28.5 329.763 29.625 329.763 31C329.763 32.375 330.875 33.5 332.25 33.5C333.625 33.5 334.75 32.375 334.75 31C334.75 29.625 333.625 28.5 332.25 28.5ZM319.963 24.4375L320 24.2875L321.125 22.25H330.438C331.375 22.25 332.2 21.7375 332.625 20.9625L337.45 12.2L335.275 11H335.263L333.887 13.5L330.438 19.75H321.662L321.5 19.4125L318.7 13.5L317.512 11L316.338 8.5H312.25V11H314.75L319.25 20.4875L317.562 23.55C317.363 23.9 317.25 24.3125 317.25 24.75C317.25 26.125 318.375 27.25 319.75 27.25H334.75V24.75H320.275C320.112 24.75 319.963 24.6125 319.963 24.4375Z" fill="black" fill-opacity="0.8"/>
</g>
<circle cx="339" cy="4" r="4" fill="#FF0000"/>
</svg>
