<svg width="372" height="118" viewBox="0 0 372 118" fill="none" xmlns="http://www.w3.org/2000/svg">
<g filter="url(#filter0_d_3_800)">
<circle cx="349.5" cy="18.5" r="16.5" fill="black"/>
<path d="M351.703 18.5L343 9.68333L345.649 7L357 18.5L345.649 30L343 27.3167L351.703 18.5Z" fill="white"/>
</g>
<g filter="url(#filter1_d_3_800)">
<circle cx="22.5" cy="18.5" r="16.5" fill="black"/>
<path d="M20.2973 18.5L29 27.3167L26.3514 30L15 18.5L26.3514 7L29 9.68333L20.2973 18.5Z" fill="white"/>
</g>
<path d="M161.5 109C160.533 109 159.708 108.658 159.025 107.975C158.342 107.292 158 106.467 158 105.5C158 104.533 158.342 103.708 159.025 103.025C159.708 102.342 160.533 102 161.5 102C162.467 102 163.292 102.342 163.975 103.025C164.658 103.708 165 104.533 165 105.5C165 106.467 164.658 107.292 163.975 107.975C163.292 108.658 162.467 109 161.5 109ZM161.5 108C162.192 108 162.781 107.756 163.269 107.269C163.756 106.781 164 106.192 164 105.5C164 104.808 163.756 104.219 163.269 103.731C162.781 103.244 162.192 103 161.5 103C160.808 103 160.219 103.244 159.731 103.731C159.244 104.219 159 104.808 159 105.5C159 106.192 159.244 106.781 159.731 107.269C160.219 107.756 160.808 108 161.5 108Z" fill="black"/>
<path d="M177.5 109C176.533 109 175.708 108.658 175.025 107.975C174.342 107.292 174 106.467 174 105.5C174 104.533 174.342 103.708 175.025 103.025C175.708 102.342 176.533 102 177.5 102C178.467 102 179.292 102.342 179.975 103.025C180.658 103.708 181 104.533 181 105.5C181 106.467 180.658 107.292 179.975 107.975C179.292 108.658 178.467 109 177.5 109ZM177.5 108C178.192 108 178.781 107.756 179.269 107.269C179.756 106.781 180 106.192 180 105.5C180 104.808 179.756 104.219 179.269 103.731C178.781 103.244 178.192 103 177.5 103C176.808 103 176.219 103.244 175.731 103.731C175.244 104.219 175 104.808 175 105.5C175 106.192 175.244 106.781 175.731 107.269C176.219 107.756 176.808 108 177.5 108Z" fill="black"/>
<path d="M177.5 109C176.533 109 175.708 108.658 175.025 107.975C174.342 107.292 174 106.467 174 105.5C174 104.533 174.342 103.708 175.025 103.025C175.708 102.342 176.533 102 177.5 102C178.467 102 179.292 102.342 179.975 103.025C180.658 103.708 181 104.533 181 105.5C181 106.467 180.658 107.292 179.975 107.975C179.292 108.658 178.467 109 177.5 109ZM177.5 108C178.192 108 178.781 107.756 179.269 107.269C179.756 106.781 180 106.192 180 105.5C180 104.808 179.756 104.219 179.269 103.731C178.781 103.244 178.192 103 177.5 103C176.808 103 176.219 103.244 175.731 103.731C175.244 104.219 175 104.808 175 105.5C175 106.192 175.244 106.781 175.731 107.269C176.219 107.756 176.808 108 177.5 108Z" fill="#757575"/>
<path d="M195.5 109C194.533 109 193.708 108.658 193.025 107.975C192.342 107.292 192 106.467 192 105.5C192 104.533 192.342 103.708 193.025 103.025C193.708 102.342 194.533 102 195.5 102C196.467 102 197.292 102.342 197.975 103.025C198.658 103.708 199 104.533 199 105.5C199 106.467 198.658 107.292 197.975 107.975C197.292 108.658 196.467 109 195.5 109ZM195.5 108C196.192 108 196.781 107.756 197.269 107.269C197.756 106.781 198 106.192 198 105.5C198 104.808 197.756 104.219 197.269 103.731C196.781 103.244 196.192 103 195.5 103C194.808 103 194.219 103.244 193.731 103.731C193.244 104.219 193 104.808 193 105.5C193 106.192 193.244 106.781 193.731 107.269C194.219 107.756 194.808 108 195.5 108Z" fill="#757575"/>
<path d="M211.5 109C210.533 109 209.708 108.658 209.025 107.975C208.342 107.292 208 106.467 208 105.5C208 104.533 208.342 103.708 209.025 103.025C209.708 102.342 210.533 102 211.5 102C212.467 102 213.292 102.342 213.975 103.025C214.658 103.708 215 104.533 215 105.5C215 106.467 214.658 107.292 213.975 107.975C213.292 108.658 212.467 109 211.5 109ZM211.5 108C212.192 108 212.781 107.756 213.269 107.269C213.756 106.781 214 106.192 214 105.5C214 104.808 213.756 104.219 213.269 103.731C212.781 103.244 212.192 103 211.5 103C210.808 103 210.219 103.244 209.731 103.731C209.244 104.219 209 104.808 209 105.5C209 106.192 209.244 106.781 209.731 107.269C210.219 107.756 210.808 108 211.5 108Z" fill="#757575"/>
<defs>
<filter id="filter0_d_3_800" x="331" y="0" width="41" height="41" filterUnits="userSpaceOnUse" color-interpolation-filters="sRGB">
<feFlood flood-opacity="0" result="BackgroundImageFix"/>
<feColorMatrix in="SourceAlpha" type="matrix" values="0 0 0 0 0 0 0 0 0 0 0 0 0 0 0 0 0 0 127 0" result="hardAlpha"/>
<feOffset dx="2" dy="2"/>
<feGaussianBlur stdDeviation="2"/>
<feComposite in2="hardAlpha" operator="out"/>
<feColorMatrix type="matrix" values="0 0 0 0 0 0 0 0 0 0 0 0 0 0 0 0 0 0 0.25 0"/>
<feBlend mode="normal" in2="BackgroundImageFix" result="effect1_dropShadow_3_800"/>
<feBlend mode="normal" in="SourceGraphic" in2="effect1_dropShadow_3_800" result="shape"/>
</filter>
<filter id="filter1_d_3_800" x="0" y="0" width="41" height="41" filterUnits="userSpaceOnUse" color-interpolation-filters="sRGB">
<feFlood flood-opacity="0" result="BackgroundImageFix"/>
<feColorMatrix in="SourceAlpha" type="matrix" values="0 0 0 0 0 0 0 0 0 0 0 0 0 0 0 0 0 0 127 0" result="hardAlpha"/>
<feOffset dx="-2" dy="2"/>
<feGaussianBlur stdDeviation="2"/>
<feComposite in2="hardAlpha" operator="out"/>
<feColorMatrix type="matrix" values="0 0 0 0 0 0 0 0 0 0 0 0 0 0 0 0 0 0 0.25 0"/>
<feBlend mode="normal" in2="BackgroundImageFix" result="effect1_dropShadow_3_800"/>
<feBlend mode="normal" in="SourceGraphic" in2="effect1_dropShadow_3_800" result="shape"/>
</filter>
</defs>
</svg>
