<svg width="32" height="12" viewBox="0 0 32 12" fill="none" xmlns="http://www.w3.org/2000/svg">
<g clip-path="url(#clip0_3_298)">
<path d="M16.5496 4.116C16.5314 5.5555 17.8325 6.35875 18.8126 6.83637C19.8196 7.32637 20.1579 7.64062 20.1539 8.07887C20.1464 8.7495 19.3506 9.0455 18.606 9.057C17.3069 9.07712 16.5515 8.70625 15.951 8.42575L15.483 10.6156C16.0855 10.8932 17.2011 11.1354 18.358 11.146C21.0736 11.146 22.8503 9.8055 22.8599 7.72712C22.8705 5.08937 19.2114 4.94337 19.2364 3.76437C19.245 3.40687 19.5861 3.02537 20.3336 2.92837C20.7036 2.87937 21.725 2.84187 22.883 3.37512L23.3375 1.25637C22.7148 1.02962 21.9144 0.812496 20.9179 0.812496C18.3619 0.812496 16.5641 2.17125 16.5496 4.116ZM27.7048 0.994996C27.2089 0.994996 26.791 1.28425 26.6045 1.72812L22.7254 10.9904H25.439L25.979 9.498H29.295L29.6082 10.9904H32L29.9129 0.994996H27.7048ZM28.0844 3.69512L28.8675 7.4485H26.7227L28.0844 3.69512ZM13.2595 0.995121L11.1205 10.9902H13.7064L15.8444 0.994871H13.2595M9.43412 0.994871L6.74263 7.79825L5.65387 2.01362C5.52612 1.36787 5.02163 0.994996 4.46138 0.994996H0.061625L0 1.28525C0.90325 1.48125 1.9295 1.79737 2.55125 2.13562C2.93175 2.34225 3.04025 2.52287 3.16525 3.01387L5.22738 10.9904H7.96L12.1495 0.994996H9.43412" fill="url(#paint0_linear_3_298)"/>
</g>
<defs>
<linearGradient id="paint0_linear_3_298" x1="14.7117" y1="11.3533" x2="15.0108" y2="0.74063" gradientUnits="userSpaceOnUse">
<stop stop-color="#222357"/>
<stop offset="1" stop-color="#254AA5"/>
</linearGradient>
<clipPath id="clip0_3_298">
<rect width="32" height="10.375" fill="white" transform="translate(0 0.8125)"/>
</clipPath>
</defs>
</svg>
