<svg width="32" height="20" viewBox="0 0 32 20" fill="none" xmlns="http://www.w3.org/2000/svg">
<g clip-path="url(#clip0_3_287)">
<path d="M11.6624 2.13965H20.3061V17.8676H11.6624V2.13965Z" fill="#FF5F00"/>
<path d="M12.2111 10.0037C12.2111 6.8081 13.6929 3.97367 15.9704 2.13962C14.2966 0.805823 12.1837 0 9.87875 0C4.41787 0 0 4.4738 0 10.0037C0 15.5334 4.41787 20.0073 9.87862 20.0073C12.1836 20.0073 14.2965 19.2015 15.9704 17.8676C13.6929 16.0614 12.2111 13.1992 12.2111 10.0037Z" fill="#EB001B"/>
<path d="M31.9682 10.0037C31.9682 15.5334 27.5503 20.0073 22.0896 20.0073C19.7846 20.0073 17.6717 19.2015 15.9978 17.8676C18.3028 16.0337 19.7572 13.1992 19.7572 10.0037C19.7572 6.8081 18.2753 3.97367 15.9978 2.13962C17.6716 0.805823 19.7846 0 22.0896 0C27.5503 0 31.9683 4.50165 31.9683 10.0037H31.9682Z" fill="#F79E1B"/>
</g>
<defs>
<clipPath id="clip0_3_287">
<rect width="32" height="20" fill="white"/>
</clipPath>
</defs>
</svg>
