<svg width="20" height="13" viewBox="0 0 20 13" fill="none" xmlns="http://www.w3.org/2000/svg">
<path fill-rule="evenodd" clip-rule="evenodd" d="M17.3636 0C16.8113 0 16.3636 0.447715 16.3636 0.999999V11.1212C16.3636 11.6735 16.8113 12.1212 17.3636 12.1212H19C19.5523 12.1212 20 11.6735 20 11.1212V1C20 0.447715 19.5523 0 19 0H17.3636ZM10.9092 3.42416C10.9092 2.87187 11.3569 2.42416 11.9092 2.42416H13.5455C14.0978 2.42416 14.5455 2.87187 14.5455 3.42416V11.1212C14.5455 11.6734 14.0978 12.1212 13.5455 12.1212H11.9092C11.3569 12.1212 10.9092 11.6734 10.9092 11.1212V3.42416ZM6.45445 4.84856C5.90216 4.84856 5.45445 5.29628 5.45445 5.84856V11.1213C5.45445 11.6736 5.90216 12.1213 6.45445 12.1213H8.09082C8.64311 12.1213 9.09082 11.6736 9.09082 11.1213V5.84856C9.09082 5.29628 8.64311 4.84856 8.09082 4.84856H6.45445ZM1.21212 12.1213C0.542687 12.1213 0 11.5786 0 10.9091V7.87882C0 7.20938 0.542687 6.66669 1.21212 6.66669H2.42425C3.09369 6.66669 3.63637 7.20938 3.63637 7.87882V10.9091C3.63637 11.5786 3.09369 12.1213 2.42425 12.1213H1.21212Z" fill="white"/>
</svg>
