<svg width="40" height="40" viewBox="0 0 40 40" fill="none" xmlns="http://www.w3.org/2000/svg">
<path d="M8.33331 25C6.94442 25 5.76387 24.5139 4.79165 23.5417C3.81942 22.5694 3.33331 21.3889 3.33331 20C3.33331 18.6111 3.81942 17.4306 4.79165 16.4583C5.76387 15.4861 6.94442 15 8.33331 15H31.6666C33.0555 15 34.2361 15.4861 35.2083 16.4583C36.1805 17.4306 36.6666 18.6111 36.6666 20C36.6666 21.3889 36.1805 22.5694 35.2083 23.5417C34.2361 24.5139 33.0555 25 31.6666 25H8.33331ZM23.3333 21.6667H31.6666C32.1389 21.6667 32.5347 21.5069 32.8541 21.1875C33.1736 20.8681 33.3333 20.4722 33.3333 20C33.3333 19.5278 33.1736 19.1319 32.8541 18.8125C32.5347 18.4931 32.1389 18.3333 31.6666 18.3333H23.3333V21.6667Z" fill="black"/>
</svg>
