<svg width="40" height="40" viewBox="0 0 40 40" fill="none" xmlns="http://www.w3.org/2000/svg">
<path d="M31.6667 15C33.0555 15 34.2361 15.4861 35.2083 16.4583C36.1805 17.4306 36.6667 18.6111 36.6667 20C36.6667 21.3889 36.1805 22.5695 35.2083 23.5417C34.2361 24.5139 33.0555 25 31.6667 25L8.33332 25C6.94443 25 5.76388 24.5139 4.79165 23.5417C3.81943 22.5695 3.33332 21.3889 3.33332 20C3.33332 18.6111 3.81943 17.4306 4.79165 16.4583C5.76388 15.4861 6.94443 15 8.33332 15L31.6667 15ZM16.6667 18.3333H8.33332C7.8611 18.3333 7.46527 18.4931 7.14582 18.8125C6.82638 19.132 6.66665 19.5278 6.66665 20C6.66665 20.4722 6.82638 20.8681 7.14582 21.1875C7.46527 21.507 7.8611 21.6667 8.33332 21.6667H16.6667V18.3333Z" fill="black"/>
</svg>
