<svg width="35" height="35" viewBox="0 0 35 35" fill="none" xmlns="http://www.w3.org/2000/svg">
<path d="M10.5 35C9.5375 35 8.71354 34.6573 8.02812 33.9719C7.34271 33.2865 7 32.4625 7 31.5C7 30.5375 7.34271 29.7135 8.02812 29.0281C8.71354 28.3427 9.5375 28 10.5 28C11.4625 28 12.2865 28.3427 12.9719 29.0281C13.6573 29.7135 14 30.5375 14 31.5C14 32.4625 13.6573 33.2865 12.9719 33.9719C12.2865 34.6573 11.4625 35 10.5 35ZM28 35C27.0375 35 26.2135 34.6573 25.5281 33.9719C24.8427 33.2865 24.5 32.4625 24.5 31.5C24.5 30.5375 24.8427 29.7135 25.5281 29.0281C26.2135 28.3427 27.0375 28 28 28C28.9625 28 29.7865 28.3427 30.4719 29.0281C31.1573 29.7135 31.5 30.5375 31.5 31.5C31.5 32.4625 31.1573 33.2865 30.4719 33.9719C29.7865 34.6573 28.9625 35 28 35ZM9.0125 7L13.2125 15.75H25.4625L30.275 7H9.0125ZM7.35 3.5H33.1625C33.8333 3.5 34.3438 3.79896 34.6937 4.39687C35.0437 4.99479 35.0583 5.6 34.7375 6.2125L28.525 17.4125C28.2042 17.9958 27.774 18.4479 27.2344 18.7687C26.6948 19.0896 26.1042 19.25 25.4625 19.25H12.425L10.5 22.75H31.5V26.25H10.5C9.1875 26.25 8.19583 25.674 7.525 24.5219C6.85417 23.3698 6.825 22.225 7.4375 21.0875L9.8 16.8L3.5 3.5H0V0H5.6875L7.35 3.5Z" fill="black"/>
</svg>
