<svg width="20" height="20" viewBox="0 0 20 20" fill="none" xmlns="http://www.w3.org/2000/svg">
<path d="M10.3084 1.7917L17.8084 4.79168C18.1001 4.90835 18.3334 5.25834 18.3334 5.56667V8.33335C18.3334 8.79168 17.9584 9.16668 17.5001 9.16668H2.50008C2.04175 9.16668 1.66675 8.79168 1.66675 8.33335V5.56667C1.66675 5.25834 1.90009 4.90835 2.19175 4.79168L9.69175 1.7917C9.85842 1.72503 10.1417 1.72503 10.3084 1.7917Z" stroke="#027FEE" stroke-width="1.25" stroke-miterlimit="10" stroke-linecap="round" stroke-linejoin="round"/>
<path d="M18.3334 18.3333H1.66675V15.8333C1.66675 15.375 2.04175 15 2.50008 15H17.5001C17.9584 15 18.3334 15.375 18.3334 15.8333V18.3333Z" stroke="#027FEE" stroke-width="1.25" stroke-miterlimit="10" stroke-linecap="round" stroke-linejoin="round"/>
<path d="M3.33325 15V9.16663" stroke="#027FEE" stroke-width="1.25" stroke-miterlimit="10" stroke-linecap="round" stroke-linejoin="round"/>
<path d="M6.66675 15V9.16663" stroke="#027FEE" stroke-width="1.25" stroke-miterlimit="10" stroke-linecap="round" stroke-linejoin="round"/>
<path d="M10 15V9.16663" stroke="#027FEE" stroke-width="1.25" stroke-miterlimit="10" stroke-linecap="round" stroke-linejoin="round"/>
<path d="M13.3333 15V9.16663" stroke="#027FEE" stroke-width="1.25" stroke-miterlimit="10" stroke-linecap="round" stroke-linejoin="round"/>
<path d="M16.6667 15V9.16663" stroke="#027FEE" stroke-width="1.25" stroke-miterlimit="10" stroke-linecap="round" stroke-linejoin="round"/>
<path d="M0.833252 18.3334H19.1666" stroke="#027FEE" stroke-width="1.25" stroke-miterlimit="10" stroke-linecap="round" stroke-linejoin="round"/>
<path d="M10 7.08337C10.6904 7.08337 11.25 6.52373 11.25 5.83337C11.25 5.14302 10.6904 4.58337 10 4.58337C9.30964 4.58337 8.75 5.14302 8.75 5.83337C8.75 6.52373 9.30964 7.08337 10 7.08337Z" stroke="#027FEE" stroke-width="1.25" stroke-miterlimit="10" stroke-linecap="round" stroke-linejoin="round"/>
</svg>
