<svg width="20" height="20" viewBox="0 0 20 20" fill="none" xmlns="http://www.w3.org/2000/svg">
<path d="M16.0834 6.59999V10.8917C16.0834 13.4583 14.6167 14.5583 12.4167 14.5583H5.09171C4.71671 14.5583 4.35838 14.525 4.02504 14.45C3.81671 14.4167 3.61672 14.3584 3.43339 14.2917C2.18339 13.825 1.42505 12.7417 1.42505 10.8917V6.59999C1.42505 4.03332 2.89171 2.93335 5.09171 2.93335H12.4167C14.2834 2.93335 15.625 3.72501 15.9834 5.53335C16.0417 5.86668 16.0834 6.20832 16.0834 6.59999Z" stroke="#027FEE" stroke-width="1.25" stroke-miterlimit="10" stroke-linecap="round" stroke-linejoin="round"/>
<path d="M18.5842 9.10009V13.3918C18.5842 15.9584 17.1176 17.0584 14.9176 17.0584H7.59254C6.97588 17.0584 6.41755 16.9751 5.93422 16.7918C4.94255 16.4251 4.26755 15.6668 4.02588 14.4501C4.35921 14.5251 4.71754 14.5584 5.09254 14.5584H12.4176C14.6176 14.5584 16.0842 13.4584 16.0842 10.8918V6.60009C16.0842 6.20842 16.0509 5.85845 15.9842 5.53345C17.5676 5.86678 18.5842 6.98342 18.5842 9.10009Z" stroke="#027FEE" stroke-width="1.25" stroke-miterlimit="10" stroke-linecap="round" stroke-linejoin="round"/>
<path d="M8.7486 10.95C9.96362 10.95 10.9486 9.96497 10.9486 8.74994C10.9486 7.53491 9.96362 6.54993 8.7486 6.54993C7.53357 6.54993 6.54858 7.53491 6.54858 8.74994C6.54858 9.96497 7.53357 10.95 8.7486 10.95Z" stroke="#027FEE" stroke-width="1.25" stroke-miterlimit="10" stroke-linecap="round" stroke-linejoin="round"/>
<path d="M3.9834 6.91675V10.5834" stroke="#027FEE" stroke-width="1.25" stroke-miterlimit="10" stroke-linecap="round" stroke-linejoin="round"/>
<path d="M13.5181 6.91687V10.5836" stroke="#027FEE" stroke-width="1.25" stroke-miterlimit="10" stroke-linecap="round" stroke-linejoin="round"/>
</svg>
