<svg width="20" height="21" viewBox="0 0 20 21" fill="none" xmlns="http://www.w3.org/2000/svg">
<path d="M16.2501 10.0833C16.2501 11.2333 17.1834 12.1666 18.3334 12.1666V13C18.3334 16.3333 17.5001 17.1666 14.1667 17.1666H5.83341C2.50008 17.1666 1.66675 16.3333 1.66675 13V12.5833C2.81675 12.5833 3.75008 11.65 3.75008 10.5C3.75008 9.34996 2.81675 8.41663 1.66675 8.41663V7.99996C1.66675 4.66663 2.50008 3.8333 5.83341 3.8333H14.1667C17.5001 3.8333 18.3334 4.66663 18.3334 7.99996C17.1834 7.99996 16.2501 8.9333 16.2501 10.0833Z" stroke="#027FEE" stroke-width="1.25" stroke-linecap="round" stroke-linejoin="round"/>
<path d="M7.5 8.20838L12.5 13.2084" stroke="#027FEE" stroke-width="1.25" stroke-linecap="round" stroke-linejoin="round"/>
<path d="M12.4953 8.20833H12.5028" stroke="#027FEE" stroke-width="1.66667" stroke-linecap="round" stroke-linejoin="round"/>
<path d="M7.49534 12.7917H7.50283" stroke="#027FEE" stroke-width="1.66667" stroke-linecap="round" stroke-linejoin="round"/>
</svg>
